<?xml version="1.0" encoding="UTF-8" standalone="no"?>
<!-- Created with Inkscape (http://www.inkscape.org/) -->

<svg
   width="750"
   height="750"
   viewBox="0 0 198.4375 198.43751"
   version="1.1"
   id="svg5"
   inkscape:version="1.1.1 (3bf5ae0d25, 2021-09-20)"
   sodipodi:docname="turtle.svg"
   xmlns:inkscape="http://www.inkscape.org/namespaces/inkscape"
   xmlns:sodipodi="http://sodipodi.sourceforge.net/DTD/sodipodi-0.dtd"
   xmlns="http://www.w3.org/2000/svg"
   xmlns:svg="http://www.w3.org/2000/svg">
  <sodipodi:namedview
     id="namedview7"
     pagecolor="#505050"
     bordercolor="#eeeeee"
     borderopacity="1"
     inkscape:pageshadow="0"
     inkscape:pageopacity="0"
     inkscape:pagecheckerboard="0"
     inkscape:document-units="mm"
     showgrid="false"
     inkscape:zoom="0.74118967"
     inkscape:cx="199.67898"
     inkscape:cy="346.06526"
     inkscape:window-width="1920"
     inkscape:window-height="1017"
     inkscape:window-x="-8"
     inkscape:window-y="-8"
     inkscape:window-maximized="1"
     inkscape:current-layer="layer1"
     units="px"
     width="750px" />
  <defs
     id="defs2" />
  <g
     inkscape:label="Warstwa 1"
     inkscape:groupmode="layer"
     id="layer1"
     style="display:inline">
    <path
       style="fill:#000000;stroke-width:0.295684"
       d="m 96.226909,197.11083 c -1.2158,-0.72423 -2.409491,-1.40947 -2.652651,-1.52276 -1.74638,-0.81365 -12.223204,-8.33592 -14.099277,-10.12314 -2.207469,-2.10292 -2.806084,-2.14071 -3.70517,-0.23384 -0.630386,1.33698 -2.900014,4.34709 -4.404752,5.84183 -1.846494,1.83423 -2.803275,2.47787 -4.946288,3.32743 -2.798823,1.10954 -5.016134,1.0991 -8.533933,-0.0401 -1.525669,-0.49411 -3.431503,-1.0517 -4.235187,-1.23907 -3.299746,-0.76937 -6.177315,-2.90927 -7.796306,-5.79772 -1.032051,-1.84129 -1.879148,-5.44584 -1.626388,-6.92054 0.724282,-4.22562 2.422755,-7.59965 6.069535,-12.05719 0.269989,-0.33 1.903992,-2.32248 3.63112,-4.4277 3.543094,-4.31876 3.494292,-4.12259 1.720164,-6.91383 -1.736919,-2.73269 -5.838575,-11.50156 -7.316145,-15.64109 -1.47638,-4.13619 -3.398605,-10.99324 -3.9548,-14.10775 -0.189386,-1.06045 -0.464593,-2.59553 -0.611571,-3.41126 -1.05541,-5.85735 -1.13204,-16.9754 -0.160267,-23.25253 0.545858,-3.525969 2.324169,-10.795519 3.372605,-13.786879 0.33544,-0.95708 0.537458,-1.8581 0.44892,-2.00228 -0.328555,-0.53503 -2.834557,-0.23543 -5.15271,0.61602 -1.453265,0.53379 -3.277015,1.52372 -4.650609,2.52437 -2.678868,1.95151 -2.856134,2.10495 -9.775603,8.46194 -6.055395,5.563149 -8.608284,7.483739 -12.634222,9.505029 -3.10484,1.55882 -8.1172106,3.68407 -10.0404386,4.25714 -1.6891043,0.50332 -4.89139433,0.6473 -5.14678333,0.23141 -0.236118,-0.38448 1.16869003,-5.22092 2.51346503,-8.65335 1.558057,-3.976799 4.3175543,-9.854559 5.7456103,-12.238199 1.569052,-2.61896 4.8289226,-7.64237 5.5467106,-8.54737 0.332788,-0.41957 0.936649,-1.21284 1.341912,-1.76281 3.860525,-5.23894 10.238002,-11.49271 15.473758,-15.17361 1.632827,-1.14793 7.409917,-4.69647 7.645935,-4.69647 0.08243,0 0.993774,-0.389 2.025211,-0.86444 2.71163,-1.24993 7.536543,-2.60468 11.145739,-3.12951 5.100869,-0.74176 8.926532,-0.58152 15.065062,0.63096 2.975473,0.58771 2.541461,0.72253 7.297222,-2.26696 3.078349,-1.93506 5.834494,-3.382378 8.989273,-4.720468 1.134591,-0.48123 2.180378,-1.06241 2.323958,-1.29149 0.17417,-0.27788 -0.0869,-1.19888 -0.78425,-2.767158 -1.791377,-4.02846 -2.576326,-7.25428 -3.323556,-13.658419 -0.394257,-3.378871 -0.418207,-4.489481 -0.133565,-6.19357 0.60629,-3.629773 0.95073,-4.958029 1.950119,-7.520047 0.5365,-1.375387 1.063709,-3.115955 1.171575,-3.867928 0.253677,-1.768621 0.816687,-2.720109 2.040637,-3.448686 0.54351,-0.3235267 2.69462,-2.2683307 4.78027,-4.3217847 4.732371,-4.65933 6.495001,-5.9070059876456 8.345101,-5.9070059876456 2.223251,0 3.311011,0.8887539976456 10.180171,8.3177039876456 0.82361,0.890719 1.92099,1.9326197 2.43863,2.3153377 1.18154,0.873562 1.68289,1.865495 1.89721,3.753638 0.0926,0.815739 0.50663,2.224036 0.92009,3.129545 1.10297,2.415577 2.23068,7.195164 2.19455,9.301229 -0.0709,4.130526 -1.90827,13.184127 -3.66659,18.066387 -0.94839,2.633358 -0.85378,3.056118 0.81402,3.637238 3.15636,1.09978 9.74639,4.651078 14.14834,7.624388 0.38115,0.25743 1.30401,0.1664 3.97897,-0.39248 2.98181,-0.62299 4.267,-0.72635 8.9354,-0.71861 5.96493,0.0101 8.18787,0.3448 12.90016,1.94365 10.10489,3.42851 20.28335,11.04665 28.31813,21.1949 1.0289,1.29955 2.10752,2.64612 2.39694,2.99238 3.22344,3.85657 8.83377,14.25438 11.26417,20.876289 1.61999,4.4138 2.71286,7.98891 2.50584,8.19726 -0.0822,0.0827 -1.12838,0.16059 -2.32487,0.17307 -1.936,0.0202 -2.56086,-0.13251 -5.67705,-1.38727 -4.92003,-1.9811 -8.91243,-3.90505 -10.55223,-5.08515 -0.77038,-0.55441 -1.49986,-1.01015 -1.62106,-1.01274 -0.24217,-0.006 -5.02719,-4.177409 -10.89157,-9.496719 -6.14655,-5.57523 -8.1854,-7.01166 -11.605,-8.17603 -2.14308,-0.72971 -4.51865,-0.93997 -4.83318,-0.42778 -0.0966,0.15728 0.14828,1.25853 0.54417,2.44722 1.20708,3.62446 2.78358,9.99745 3.2863,13.284969 0.67383,4.40639 0.89937,13.44695 0.4463,17.8901 -0.46761,4.58595 -1.79859,12.01035 -2.78803,15.55209 -0.90145,3.22676 -2.91534,8.93904 -4.47184,12.68418 -1.1637,2.8 -4.83469,10.14948 -5.70433,11.42035 -1.16803,1.70692 -1.25273,1.53268 3.67686,7.56414 5.34869,6.54423 7.02067,9.2432 7.92821,12.79801 0.81526,3.19342 0.45577,5.91109 -1.1756,8.88713 -1.77796,3.24349 -4.71517,5.38692 -8.2641,6.03075 -0.98983,0.17958 -2.62631,0.65253 -3.63661,1.05102 -6.43797,2.53924 -12.16752,-0.1291 -17.32136,-8.06682 -0.87036,-1.34049 -1.68804,-2.5029 -1.81705,-2.58315 -0.12901,-0.0803 -2.18465,1.42272 -4.56808,3.33995 -6.12256,4.92493 -16.27871,11.33474 -17.922381,11.31125 -0.37533,-0.006 -1.67718,-0.6023 -2.89296,-1.32652 z m 5.793431,-7.569 c 2.15982,-1.193 8.35855,-5.06337 9.0297,-5.63798 0.19573,-0.16758 1.35062,-1.05012 2.56642,-1.96121 8.91975,-6.68422 18.6834,-17.63674 24.02662,-26.95221 7.0779,-12.33973 11.11492,-24.70402 12.06742,-36.95919 0.0964,-1.23926 0.23863,-2.5741 0.31625,-2.96633 0.0776,-0.39223 0.007,-2.71542 -0.15785,-5.16263 -0.43839,-6.52429 -1.00055,-9.924419 -2.5383,-15.352669 -1.22868,-4.3373 -2.09657,-6.60056 -4.00891,-10.45437 -4.61963,-9.30963 -11.45867,-16.93017 -20.4439,-22.78004 -2.37989,-1.54944 -9.35016,-5.07694 -11.03691,-5.58556 -1.06228,-0.32032 -1.29522,-0.26874 -3.30854,0.73245 -3.08449,1.53385 -4.6813,1.96493 -8.04409,2.17158 -4.422281,0.27176 -8.739882,-0.71621 -11.380582,-2.60414 -0.43028,-0.30762 -1.05537,-0.55932 -1.38908,-0.55932 -1.43548,0 -9.279946,3.80651 -12.985762,6.30133 -5.447067,3.66704 -10.300803,8.20807 -14.259809,13.34109 -6.238615,8.08862 -10.472935,19.14593 -11.788936,30.785099 -0.422563,3.73726 -0.391439,11.45022 0.05859,14.535 0.178526,1.22361 0.461675,3.15914 0.629205,4.30118 0.651772,4.44292 3.040186,12.99081 4.931588,17.64963 6.242472,15.37621 17.314425,29.7223 30.575954,39.6177 1.29685,0.96768 2.42422,1.84103 2.50527,1.94077 0.0811,0.0998 1.47369,1.05346 3.09475,2.11935 3.928031,2.5828 7.793351,4.66464 8.669651,4.66941 0.39144,0.002 1.683481,-0.53289 2.871191,-1.18894 z m -7.561861,-3.60954 c -2.188441,-1.33193 -5.040041,-3.20242 -6.336881,-4.15667 -3.9229,-2.88652 -9.55535,-7.76046 -9.742799,-8.43073 -0.125533,-0.44885 1.122817,-3.22107 4.341193,-9.64056 l 4.517386,-9.01054 10.757961,-0.14831 c 5.916861,-0.0816 11.199771,-0.0816 11.739791,0 1.11008,0.16768 0.78851,-0.39016 6.81622,11.82428 2.01452,4.08221 3.20979,6.83502 3.10795,7.15793 -0.24583,0.77954 -5.8691,5.64389 -10.16918,8.79675 -2.84012,2.08242 -9.626061,6.03729 -10.352261,6.03335 -0.38524,-0.002 -2.49095,-1.09358 -4.67938,-2.4255 z m 27.215661,-15.14618 c -1.33437,-2.15328 -8.34841,-16.77884 -8.33543,-17.38089 0.009,-0.43332 1.97935,-4.72565 4.3778,-9.53852 l 4.36082,-8.75066 10.83416,-0.0778 c 9.68339,-0.0696 10.81554,-0.029 10.6589,0.38179 -0.0964,0.25281 -0.39342,1.22223 -0.66007,2.15428 -0.6427,2.24643 -3.37775,8.66345 -5.20165,12.20414 -3.66594,7.11661 -8.87958,14.53303 -14.03826,19.96949 -1.43021,1.50723 -1.63849,1.61555 -1.99627,1.03822 z M 73.016763,167.9289 c -5.311997,-5.9563 -8.765559,-11.00964 -12.438135,-18.19981 -2.391173,-4.68144 -5.90984,-13.20473 -5.90984,-14.31544 0,-0.39979 1.246148,-0.4442 10.536897,-0.37552 l 10.5369,0.0779 4.479704,8.89898 c 2.463838,4.89444 4.486479,9.13197 4.494769,9.41673 0.0225,0.77298 -8.3233,17.42851 -8.733108,17.42851 -0.194099,0 -1.529328,-1.31911 -2.967187,-2.93136 z m 14.139455,-16.12727 c -0.59775,-0.73704 -8.908366,-17.78851 -8.908366,-18.27791 0,-0.42564 4.620398,-9.88302 8.170846,-16.72474 l 1.03907,-2.00227 h 11.581811 11.581801 l 4.63554,9.39739 4.63554,9.39737 -4.39065,8.88565 c -2.41484,4.88711 -4.56589,9.06782 -4.7801,9.29047 -0.54723,0.56879 -23.105392,0.60137 -23.565492,0.0341 z M 53.976684,132.3709 c -0.266978,-0.43477 -1.141872,-4.10017 -1.716663,-7.19205 -0.835032,-4.49174 -1.086502,-16.41629 -0.43789,-20.76427 0.65246,-4.37375 1.645206,-8.537339 2.158871,-9.054299 0.367264,-0.36963 2.057132,-0.43795 10.831631,-0.43795 9.531027,0 10.43448,0.0432 10.852944,0.51911 0.251066,0.2855 2.461342,4.55385 4.911735,9.485199 l 4.455256,8.9661 -4.497632,9.06581 c -3.370778,6.79446 -4.645306,9.09537 -5.087096,9.18377 -1.173291,0.23476 -21.335548,0.4494 -21.471156,0.22858 z m 68.589996,-0.003 c -0.46994,-0.3066 -9.24496,-17.87432 -9.24496,-18.50855 0,-0.5794 8.39571,-17.598089 9.08586,-18.417669 0.40144,-0.47674 1.30854,-0.5191 11.11331,-0.5191 8.74792,0 10.7375,0.0743 11.01573,0.41175 0.44046,0.53414 1.68241,6.097939 2.23577,10.016049 0.57089,4.04222 0.57067,12.57774 -3e-4,16.41744 -0.58943,3.96299 -1.9018,9.99501 -2.27495,10.4563 -0.23004,0.28438 -2.78154,0.36974 -10.9481,0.36625 -5.85651,-0.002 -10.7985,-0.10259 -10.98223,-0.22247 z M 87.455868,112.34986 c -0.1627,-0.20393 -2.32009,-4.43321 -4.794226,-9.39839 l -4.498418,-9.027609 3.947592,-8.0105 c 2.171192,-4.40578 4.257362,-8.58604 4.635962,-9.28946 l 0.68837,-1.27895 11.690661,0.022 11.690631,0.022 4.39981,8.95112 c 2.4199,4.92312 4.45241,9.1144 4.5167,9.31399 0.10293,0.31947 -1.34712,3.43919 -7.37499,15.867219 l -1.54152,3.17826 -11.532381,0.0101 c -8.881991,0.008 -11.600381,-0.0747 -11.828191,-0.36024 z m 45.318582,-19.503579 -10.46322,-0.14832 -4.4802,-8.89898 c -2.46412,-4.89444 -4.48755,-9.16595 -4.49653,-9.49224 -0.009,-0.3263 1.27756,-3.16128 2.85897,-6.29996 2.4399,-4.84257 2.95844,-5.68012 3.42456,-5.53124 0.53665,0.17142 5.20123,3.26683 5.49323,3.64529 0.0811,0.10505 1.00947,0.87868 2.06316,1.71917 4.24732,3.3879 9.21943,9.34883 12.10708,14.51487 2.51302,4.49579 4.75251,10.00898 4.23288,10.42055 -0.1522,0.12054 -4.98517,0.15243 -10.73993,0.0709 z m -78.105662,-0.38731 c 0,-0.5582 1.931129,-5.29628 3.157862,-7.7479 3.213572,-6.42231 8.621958,-13.2419 13.494856,-17.01606 0.972635,-0.75332 1.834749,-1.45679 1.915802,-1.56326 0.485223,-0.63737 5.107482,-3.56644 5.504546,-3.48816 0.514221,0.10135 5.965314,10.67415 5.981174,11.60089 0.009,0.49966 -8.259658,17.43352 -8.90154,18.231 -0.446213,0.55437 -21.1527,0.5382 -21.1527,-0.0165 z m 32.22726,-20.45113 c -0.27711,-0.53024 -1.6239,-3.21136 -2.992884,-5.95805 -2.800002,-5.61787 -2.797028,-5.27367 -0.05525,-6.41278 0.891574,-0.37042 2.203974,-0.93763 2.916444,-1.26046 l 1.29539,-0.58695 2.38883,1.19602 c 5.505171,2.75626 11.378312,2.83012 16.869562,0.21216 l 2.86043,-1.3637 3.03495,1.26547 c 1.66923,0.696 3.10383,1.43777 3.18802,1.64838 0.0842,0.2106 -1.1718,3.04715 -2.79109,6.30343 l -2.94416,5.92053 H 99.033099 87.399908 Z"
       id="path39" />
  </g>
</svg>
